<svg id="Слой_1" xmlns="http://www.w3.org/2000/svg" viewBox="0 0 36.9 36.9"><style>.st0{fill:#fcfafb}.st1{fill:#441730}.st2{fill:none;stroke:#e9dbde;stroke-miterlimit:10}.st3{fill:#4a4a4a}.st4,.st5{fill:#f7f3f4}.st5{opacity:.6}.st6{fill:#c58ca0}.st7{fill:#950a34}.st8{fill:#e9dbde}.st9{fill:#dd2082}.st10{fill:#ede3e3}.st11{fill:#fff}.st12{opacity:.9;fill:#fbfbfb}.st13,.st14{clip-path:url(#SVGID_10_)}.st14{fill:#c58ca0}.st15{opacity:.9}.st16{fill:#fbfbfb}.st17{fill:#cfcfcf}.st18{fill:none;stroke:#cfcfcf;stroke-miterlimit:10}</style><path class="st1" d="M20.5 31.6c.2-.4.5-.8.9-1.1.8-.5 1.7-.7 2.6-.9.6-.1.8-.2.8-.8.1-.7.1-1.5 0-2.2 0-.1-.1-.3-.2-.4-.7-.5-1.3-1.2-1.6-2-.6.2-1.2.4-1.8.7-.1.1-.2.3-.3.4-.1 1-.1 1.9-.1 2.9 0 .3.1.6.1.9 0 .2-.1.4-.2.5-1 .6-1.7 1.5-2.3 2.5 0 0-.1.1-.1.2-.1-.7 0-1.2.2-1.8-.5.2-.8.4-1.2.5-.3 0-.8 0-1.2.1-.5.1-1 .3-1.5.4-.1 0-.3.1-.4.1l-.1-.1c.2-.2.4-.4.7-.6.6-.3 1.1-.5 1.7-.8.4-.2.8-.4 1.3-.6-.8-.5-1.6-.3-2.4-.3.2-.3.5-.5.8-.5.8-.1 1.5-.1 2.3-.1.7 0 .9-.1 1-.8.1-.9.2-1.7.2-2.6 0-.1-.1-.2-.2-.3-1.4-.8-2-2-2.1-3.5-.1-1-.8-1.9-1.8-2.2-.7-.2-1.4-.2-2 .1-1.4.6-2.9.5-4.3 0-.7-.3-1.4-.1-2 .4-.9.7-1.6 1.6-2.2 2.6-1.2 1.8-1.9 3.9-2.3 6l-.3.9h-.1c0-.2-.1-.4-.1-.6 0-1.3.3-2.6.6-3.9.5-2.1 1.1-4.1 2-6 .1-.1 0-.3 0-.5-.7-1.5-.4-3.5.7-4.6.7-.8 1.6-1.1 2.7-.8.4.1.7 0 1-.4 1.8-2.1 4.1-3.7 6.7-4.6 2-.8 4.2-.9 6.4-.6 1.6.2 3.1.6 4.5 1.3 2.7 1.4 4.2 3.6 4.8 6.5.4 2.1.4 4.2-.4 6.3-.6 1.5-1.5 2.8-2.8 3.8-.4.3-.8.5-1.3.7-.6.3-.9.7-.9 1.4s.1 1.4.1 2.1c0 .4.3.6.6.9.6.5 1.1 1.2 1.2 2v.7c-.2-.2-.3-.3-.4-.5-.4-.6-1-1.1-1.7-1.3-.7-.2-1.3-.1-1.8.5-.4.4-.8.7-1.2 1.1-.3.3-.6.6-.8.9-.1.1-.2.2-.3.4-.2-1.4.8-2.1 1.4-3.2-1 .1-1.9.5-2.9.8z"/><path class="st1" d="M18.5 36.9C8.3 36.9 0 28.6 0 18.5S8.3 0 18.5 0 37 8.3 37 18.5s-8.4 18.4-18.5 18.4zm0-35.7C8.9 1.2 1.2 8.9 1.2 18.5S9 35.8 18.5 35.8 35.8 28 35.8 18.5 28 1.2 18.5 1.2z"/></svg>